<?xml version="1.0" standalone="no"?>
<!DOCTYPE svg PUBLIC "-//W3C//DTD SVG 20010904//EN"
 "http://www.w3.org/TR/2001/REC-SVG-20010904/DTD/svg10.dtd">
<svg version="1.0" xmlns="http://www.w3.org/2000/svg"
 width="1667.000000pt" height="980.000000pt" viewBox="0 0 1667.000000 980.000000"
 preserveAspectRatio="xMidYMid meet">

<g transform="translate(0.000000,980.000000) scale(0.100000,-0.100000)"
fill="#000000" stroke="none">
<path d="M0 9465 c0 -184 2 -335 5 -335 3 0 123 68 267 152 145 83 291 167
325 187 35 20 63 38 62 41 0 3 -112 69 -248 148 l-249 142 -81 0 -81 0 0 -335z"/>
<path d="M255 9787 c11 -8 116 -69 233 -136 l213 -122 142 82 c78 45 181 104
230 132 48 27 87 51 87 53 0 2 -208 4 -462 4 -391 0 -459 -2 -443 -13z"/>
<path d="M997 9661 c-130 -75 -242 -142 -247 -147 -6 -6 97 -71 277 -174 157
-91 305 -176 327 -189 l41 -23 155 90 c85 49 232 134 326 188 95 55 170 102
168 105 -2 4 -43 29 -91 57 -49 27 -159 91 -246 141 l-157 91 -158 0 -157 -1
-238 -138z"/>
<path d="M1630 9796 c0 -2 103 -63 229 -135 l230 -132 173 99 c95 55 200 116
233 136 l60 36 -462 0 c-255 0 -463 -2 -463 -4z"/>
<path d="M2569 9768 c-30 -18 -141 -82 -246 -143 -106 -60 -193 -112 -193
-115 0 -3 39 -28 88 -56 48 -28 194 -112 326 -188 l238 -138 275 159 c151 87
299 172 330 189 l55 32 -23 15 c-13 8 -127 74 -252 146 l-228 131 -158 0 -157
0 -55 -32z"/>
<path d="M3026 9791 c5 -5 109 -66 231 -136 l221 -127 129 75 c70 41 175 102
233 136 l105 61 -464 0 c-268 0 -461 -4 -455 -9z"/>
<path d="M3975 9779 c-16 -11 -126 -74 -242 -142 -117 -67 -213 -125 -213
-128 0 -9 633 -373 650 -373 17 0 650 363 650 373 0 3 -111 70 -246 149 l-245
142 -162 -1 c-143 0 -166 -3 -192 -20z"/>
<path d="M4590 9687 c107 -62 213 -123 235 -136 l40 -22 180 104 c99 57 205
118 235 135 l55 32 -470 0 -470 0 195 -113z"/>
<path d="M5385 9791 c-6 -5 -115 -69 -242 -142 -128 -73 -233 -136 -233 -140
0 -4 533 -317 643 -376 8 -5 657 367 657 376 0 3 -112 70 -248 148 l-247 143
-160 0 c-89 0 -165 -4 -170 -9z"/>
<path d="M5791 9796 c4 -4 206 -121 369 -213 69 -40 99 -52 110 -45 8 5 107
62 220 127 113 65 209 121 215 126 5 5 -188 9 -455 9 -255 0 -461 -2 -459 -4z"/>
<path d="M6546 9660 c-132 -77 -243 -143 -247 -147 -4 -4 81 -59 189 -121 108
-62 256 -147 327 -188 92 -53 135 -72 146 -67 44 21 639 368 639 373 0 3 -17
14 -38 26 -20 11 -132 75 -248 142 l-212 122 -158 -1 -159 -1 -239 -138z"/>
<path d="M7195 9787 c11 -7 58 -35 105 -62 47 -26 142 -82 212 -123 l128 -74
217 126 c120 69 225 130 233 135 10 7 -141 10 -450 10 -387 1 -461 -1 -445
-12z"/>
<path d="M7928 9657 c-136 -78 -247 -144 -247 -147 -1 -3 146 -90 326 -193
l327 -188 40 22 c23 12 93 52 156 89 63 37 192 111 287 166 131 75 169 102
160 110 -7 7 -119 73 -250 148 l-237 136 -158 -1 -157 0 -247 -142z"/>
<path d="M8585 9787 c21 -15 383 -225 423 -246 24 -13 -4 -27 352 178 69 40
127 75 129 77 2 2 -204 4 -460 4 -392 0 -460 -2 -444 -13z"/>
<path d="M9318 9657 c-136 -78 -247 -144 -247 -147 -1 -5 41 -30 423 -250
l228 -133 33 19 c17 11 165 96 328 189 162 94 292 173 288 178 -4 4 -116 70
-249 147 l-242 140 -158 0 -157 0 -247 -143z"/>
<path d="M9966 9792 c8 -8 139 -84 360 -211 l91 -52 164 94 c90 52 196 113
234 136 l70 41 -464 0 c-256 0 -461 -4 -455 -8z"/>
<path d="M10708 9657 c-136 -78 -248 -144 -248 -148 0 -3 146 -90 325 -193
l325 -188 118 67 c303 173 532 309 532 314 0 4 -111 71 -246 149 l-246 142
-157 0 -156 0 -247 -143z"/>
<path d="M11569 9665 c128 -74 235 -135 237 -135 2 0 83 46 181 103 98 57 203
118 233 135 l55 32 -469 0 -470 0 233 -135z"/>
<path d="M12175 9704 c-88 -51 -185 -108 -215 -126 -30 -17 -70 -40 -88 -51
l-33 -19 178 -102 c98 -56 246 -142 330 -190 l152 -88 208 120 c396 228 443
256 443 261 0 3 -111 70 -247 149 l-246 142 -161 -1 -161 -1 -160 -94z"/>
<path d="M12731 9796 c2 -2 107 -63 233 -135 l229 -132 221 127 c122 69 225
130 231 135 5 5 -188 9 -455 9 -255 0 -461 -2 -459 -4z"/>
<path d="M13485 9659 c-132 -77 -241 -143 -243 -148 -2 -5 136 -89 305 -186
169 -98 315 -183 324 -188 12 -7 40 4 115 48 54 31 201 116 327 188 125 72
227 133 227 136 0 3 -42 29 -93 58 -50 29 -162 93 -247 143 l-155 90 -160 -1
-160 -1 -240 -139z"/>
<path d="M14121 9796 c2 -1 106 -63 232 -135 l227 -133 223 128 c122 70 226
131 232 136 5 4 -200 8 -455 8 -255 0 -461 -2 -459 -4z"/>
<path d="M15020 9743 c-52 -30 -162 -94 -243 -141 -81 -47 -149 -88 -151 -91
-5 -7 632 -376 649 -376 14 0 655 367 655 375 0 3 -22 17 -48 31 -26 14 -138
78 -248 142 l-201 117 -159 -1 -159 -1 -95 -55z"/>
<path d="M15525 9786 c11 -7 99 -58 195 -113 96 -55 192 -110 212 -122 l37
-22 83 47 c107 60 372 215 377 220 2 2 -204 4 -460 4 -392 0 -460 -2 -444 -14z"/>
<path d="M16258 9657 c-136 -78 -247 -144 -247 -147 -1 -3 43 -30 97 -62 297
-172 552 -318 557 -318 3 0 5 151 5 335 l0 335 -82 -1 -83 0 -247 -142z"/>
<path d="M7288 9287 l-328 -191 0 -378 c0 -208 2 -378 4 -378 4 0 54 28 241
136 66 38 186 108 267 154 l148 85 0 383 c0 210 -1 382 -2 381 -2 -1 -150 -87
-330 -192z"/>
<path d="M8678 9288 l-328 -191 0 -378 c0 -209 2 -379 4 -379 3 0 74 40 158
89 84 48 231 133 325 187 l172 99 1 383 c0 210 -1 382 -2 381 -2 0 -150 -87
-330 -191z"/>
<path d="M10350 9451 c-25 -15 -121 -72 -215 -126 -93 -53 -221 -127 -282
-163 l-113 -65 0 -379 c0 -209 4 -378 8 -376 21 8 629 362 640 372 9 9 12 95
10 389 l-3 376 -45 -28z"/>
<path d="M14600 9097 l0 -382 153 -87 c83 -47 230 -132 326 -187 96 -56 175
-101 177 -101 2 0 4 171 4 379 l0 379 -147 85 c-82 46 -230 132 -330 190
l-183 106 0 -382z"/>
<path d="M15618 9287 l-328 -190 0 -379 c0 -208 2 -378 4 -378 2 0 71 39 153
86 81 47 228 132 325 187 l177 102 3 378 c2 209 1 380 -2 381 -3 2 -152 -83
-332 -187z"/>
<path d="M595 9429 c-39 -23 -175 -102 -304 -176 -128 -74 -242 -140 -252
-146 -18 -11 -19 -31 -19 -389 0 -208 2 -378 3 -378 2 0 87 48 188 106 101 58
248 143 326 187 l143 82 0 378 c0 207 -3 377 -8 377 -4 0 -39 -18 -77 -41z"/>
<path d="M720 9093 l0 -378 148 -84 c81 -47 227 -131 325 -188 98 -57 180
-103 182 -103 3 0 5 170 5 379 l0 378 -127 73 c-71 41 -216 125 -323 187 -107
62 -198 113 -202 113 -4 0 -8 -170 -8 -377z"/>
<path d="M1820 9334 c-129 -75 -274 -158 -322 -186 l-88 -49 0 -380 c0 -210 4
-379 8 -377 4 2 153 86 330 188 l321 185 1 378 c0 207 -4 377 -8 377 -4 0
-113 -61 -242 -136z"/>
<path d="M2110 9094 l0 -379 28 -16 c15 -8 161 -93 325 -187 164 -95 301 -172
303 -172 2 0 4 168 4 373 0 344 -1 375 -17 389 -10 9 -99 62 -198 118 -99 57
-232 133 -296 171 -63 37 -123 71 -132 75 -16 6 -17 -21 -17 -372z"/>
<path d="M3118 9283 l-318 -185 0 -379 0 -380 23 12 c12 7 63 35 112 64 170
98 420 243 470 272 l50 29 3 377 c2 299 0 377 -10 376 -7 0 -156 -84 -330
-186z"/>
<path d="M3492 9094 l3 -376 285 -165 c157 -90 304 -176 328 -189 l42 -25 0
380 0 380 -67 40 c-295 172 -575 331 -583 331 -7 0 -10 -120 -8 -376z"/>
<path d="M4510 9285 l-315 -182 -3 -382 c-1 -210 1 -380 5 -378 5 3 109 63
233 134 124 72 268 155 320 185 l95 55 3 377 c2 298 0 376 -10 375 -7 0 -155
-83 -328 -184z"/>
<path d="M4882 9094 l3 -377 230 -133 c127 -73 273 -158 325 -189 l95 -55 3
377 c1 207 -1 380 -5 384 -13 13 -636 369 -645 369 -4 0 -7 -169 -6 -376z"/>
<path d="M5906 9290 c-170 -98 -313 -183 -318 -188 -4 -4 -7 -177 -6 -384 l3
-376 225 130 c124 71 271 157 327 190 l102 60 -2 371 c-1 236 -6 371 -12 373
-5 2 -149 -78 -319 -176z"/>
<path d="M6270 9092 l0 -379 24 -11 c13 -6 148 -83 300 -171 153 -89 290 -168
307 -176 l29 -16 0 380 0 379 -317 184 c-174 101 -323 184 -330 186 -11 3 -13
-68 -13 -376z"/>
<path d="M7660 9093 l0 -378 88 -49 c48 -28 194 -112 326 -188 131 -76 240
-138 242 -138 2 0 4 170 4 379 l0 379 -187 108 c-104 59 -249 143 -323 186
-74 43 -138 78 -142 78 -5 0 -8 -170 -8 -377z"/>
<path d="M9050 9093 l0 -378 321 -185 c176 -102 325 -186 330 -188 5 -2 9 143
9 371 0 344 -1 375 -17 389 -10 8 -110 68 -223 133 -113 65 -250 144 -306 176
-55 33 -104 59 -107 59 -4 0 -7 -170 -7 -377z"/>
<path d="M10432 9094 l3 -376 285 -165 c157 -90 304 -176 328 -189 l42 -25 0
380 0 380 -117 69 c-332 194 -522 302 -532 302 -9 0 -11 -104 -9 -376z"/>
<path d="M11720 9441 c-25 -16 -164 -97 -310 -180 -146 -84 -268 -156 -273
-160 -4 -4 -6 -177 -5 -384 l3 -376 325 188 325 188 3 376 c2 299 0 377 -10
376 -7 0 -33 -13 -58 -28z"/>
<path d="M11820 9095 l0 -375 23 -13 c12 -8 99 -58 192 -112 94 -54 211 -121
260 -150 50 -29 111 -65 138 -80 l47 -27 -2 382 -3 383 -165 95 c-91 52 -234
135 -318 184 -85 48 -158 88 -163 88 -5 0 -9 -158 -9 -375z"/>
<path d="M12840 9286 l-315 -183 -3 -382 -2 -382 42 25 c24 13 171 98 328 189
l285 164 3 377 c2 298 0 376 -10 375 -7 0 -155 -83 -328 -183z"/>
<path d="M13212 9093 l3 -378 325 -187 325 -187 3 376 c1 207 -1 380 -5 384
-14 13 -636 369 -645 369 -4 0 -7 -170 -6 -377z"/>
<path d="M14237 9291 c-169 -98 -314 -184 -322 -191 -13 -11 -15 -67 -15 -380
0 -201 3 -369 6 -372 3 -3 49 20 104 51 54 31 200 114 324 185 l226 130 0 378
c0 208 -3 378 -7 378 -5 -1 -146 -81 -316 -179z"/>
<path d="M15990 9093 l0 -378 143 -82 c78 -44 224 -128 324 -186 100 -58 184
-103 187 -99 3 3 6 172 6 377 l0 371 -324 187 c-178 103 -326 187 -330 187 -3
0 -6 -170 -6 -377z"/>
<path d="M11690 8621 c-63 -37 -211 -123 -328 -190 -185 -107 -211 -125 -195
-135 30 -20 481 -281 589 -341 l51 -28 309 178 c170 98 317 183 327 190 21 15
59 -9 -358 230 -132 76 -249 144 -260 150 -17 11 -35 4 -135 -54z"/>
<path d="M370 8496 c-173 -100 -314 -186 -313 -191 1 -9 629 -375 643 -375 5
0 96 50 202 112 106 61 249 144 318 183 69 40 125 76 125 81 0 5 -81 55 -180
112 -99 57 -241 140 -316 183 -75 43 -142 79 -150 79 -8 -1 -156 -83 -329
-184z"/>
<path d="M1895 8575 c-99 -58 -242 -140 -317 -182 -76 -43 -136 -82 -135 -87
3 -10 610 -365 637 -372 17 -5 652 357 652 372 1 11 -621 373 -642 373 -8 1
-96 -46 -195 -104z"/>
<path d="M3142 8494 l-323 -187 31 -18 c218 -133 625 -359 637 -354 50 18 642
370 636 376 -16 16 -635 369 -646 369 -7 0 -157 -84 -335 -186z"/>
<path d="M4823 8665 c-12 -8 -65 -40 -120 -71 -337 -193 -493 -288 -486 -294
33 -29 647 -371 658 -366 11 4 167 93 582 334 35 20 60 39 55 43 -21 20 -638
369 -652 369 -8 0 -25 -7 -37 -15z"/>
<path d="M6120 8611 c-63 -37 -203 -118 -310 -180 -107 -62 -199 -116 -203
-120 -5 -5 58 -47 140 -93 81 -47 220 -127 308 -178 88 -51 169 -97 181 -102
18 -8 55 9 225 108 112 64 258 148 324 187 66 38 121 70 123 72 2 1 -70 45
-160 96 -90 51 -235 135 -322 186 -88 51 -167 93 -175 92 -9 0 -68 -31 -131
-68z"/>
<path d="M7316 8500 c-170 -99 -313 -183 -318 -188 -6 -6 76 -58 204 -132 117
-68 261 -152 321 -187 59 -34 111 -63 116 -63 5 0 137 74 293 164 358 207 358
207 358 214 -1 10 -636 372 -652 371 -7 0 -152 -81 -322 -179z"/>
<path d="M8698 8497 c-174 -100 -317 -185 -318 -189 0 -7 69 -49 413 -247 126
-72 233 -131 239 -131 6 0 47 22 92 49 44 27 155 92 246 144 318 182 313 179
298 192 -23 21 -627 365 -640 365 -7 0 -156 -83 -330 -183z"/>
<path d="M10244 8587 c-87 -51 -232 -135 -322 -186 -89 -52 -161 -95 -160 -96
2 -2 73 -43 158 -92 85 -50 231 -134 325 -188 l170 -98 50 28 c243 134 605
349 598 356 -17 17 -634 369 -646 369 -7 0 -85 -42 -173 -93z"/>
<path d="M13080 8623 c-52 -31 -192 -112 -310 -180 -118 -68 -218 -128 -223
-132 -4 -4 61 -47 145 -96 84 -49 222 -128 306 -177 84 -49 163 -93 176 -99
21 -10 56 7 319 160 163 94 310 179 327 189 l31 19 -317 183 c-174 101 -326
185 -338 186 -12 2 -61 -20 -116 -53z"/>
<path d="M14510 8646 c-30 -18 -167 -98 -305 -176 -137 -79 -256 -149 -263
-155 -11 -10 9 -26 105 -81 65 -37 181 -105 258 -150 78 -45 172 -98 210 -119
l70 -38 325 188 c179 103 326 189 328 190 1 1 -48 31 -110 67 -62 35 -208 119
-324 186 -116 67 -218 122 -225 122 -8 0 -39 -16 -69 -34z"/>
<path d="M15680 8520 c-377 -218 -364 -210 -354 -220 14 -13 635 -370 644
-370 15 0 642 367 642 376 1 11 -621 373 -642 373 -8 0 -139 -71 -290 -159z"/>
<path d="M22 7894 l3 -379 110 -64 c61 -35 207 -119 325 -187 l215 -124 3 377
c2 295 -1 379 -10 385 -69 44 -611 356 -633 364 -13 6 -15 -38 -13 -372z"/>
<path d="M1240 8197 c-69 -40 -214 -124 -322 -186 l-198 -113 0 -380 0 -379
48 26 c26 14 173 99 327 188 l280 162 3 378 c1 207 -1 377 -6 377 -4 0 -64
-33 -132 -73z"/>
<path d="M1412 7894 l3 -378 135 -79 c74 -44 182 -107 240 -140 58 -33 142
-82 186 -109 45 -26 85 -48 88 -48 3 0 6 170 6 378 l0 379 -315 182 c-173 100
-321 184 -330 187 -14 6 -15 -35 -13 -372z"/>
<path d="M2430 8085 l-315 -183 -2 -64 c-5 -112 -8 -698 -4 -698 5 0 295 166
494 282 l158 93 2 378 c1 246 -1 377 -8 376 -5 -1 -152 -83 -325 -184z"/>
<path d="M2800 7893 l0 -378 325 -187 c178 -104 326 -188 329 -188 4 0 6 170
6 378 l0 378 -132 76 c-73 42 -219 126 -325 187 -106 61 -195 111 -198 111 -3
0 -5 -170 -5 -377z"/>
<path d="M4039 8212 c-53 -32 -198 -115 -322 -187 l-227 -130 0 -379 c0 -317
2 -377 14 -373 12 5 192 108 519 297 l127 74 0 378 c0 208 -3 378 -7 377 -5 0
-51 -26 -104 -57z"/>
<path d="M4190 7892 l0 -377 324 -188 c178 -103 326 -187 330 -187 3 0 6 170
6 378 l0 377 -208 119 c-114 66 -260 150 -324 188 -64 37 -119 68 -122 68 -3
0 -6 -170 -6 -378z"/>
<path d="M5203 8082 l-323 -187 0 -377 c0 -208 3 -378 6 -378 3 0 89 49 192
108 103 60 249 144 325 188 l137 79 0 377 c0 208 -3 378 -7 378 -5 -1 -153
-85 -330 -188z"/>
<path d="M5577 7893 c2 -289 6 -379 15 -385 40 -25 618 -359 632 -364 15 -6
16 25 16 369 l0 376 -27 19 c-16 10 -140 83 -278 162 -137 78 -271 156 -298
171 -26 16 -51 29 -55 29 -4 0 -6 -170 -5 -377z"/>
<path d="M6593 8083 l-323 -186 0 -379 c0 -208 2 -378 4 -378 5 0 520 296 599
344 l57 35 0 376 c0 206 -3 375 -7 375 -5 0 -153 -84 -330 -187z"/>
<path d="M6967 7893 l2 -378 288 -168 c158 -92 305 -177 326 -188 l37 -19 0
379 0 379 -247 143 c-137 78 -282 162 -323 186 -41 24 -77 43 -80 43 -3 0 -4
-170 -3 -377z"/>
<path d="M8270 8251 c-14 -9 -157 -93 -317 -185 l-293 -168 0 -379 c0 -209 2
-379 5 -379 2 0 28 14 57 31 29 17 159 92 288 166 129 74 252 146 273 159 l37
24 0 375 c0 402 1 393 -50 356z"/>
<path d="M8350 7897 c0 -287 3 -377 13 -385 14 -11 637 -372 643 -372 2 0 4
170 4 379 l0 378 -314 181 c-172 100 -321 184 -330 188 -15 6 -16 -26 -16
-369z"/>
<path d="M9380 8089 c-173 -100 -318 -184 -323 -188 -4 -4 -6 -177 -5 -384 l3
-377 110 64 c211 121 440 254 488 282 l48 29 2 378 c1 207 0 377 -3 377 -3 0
-147 -81 -320 -181z"/>
<path d="M9740 7893 l1 -378 320 -185 c176 -102 324 -186 329 -188 6 -2 10
139 10 376 l0 379 -324 186 c-178 103 -326 187 -330 187 -3 0 -6 -170 -6 -377z"/>
<path d="M10845 8135 c-126 -74 -270 -158 -320 -187 l-90 -53 -2 -378 c-2
-351 -1 -378 14 -372 10 3 89 48 178 99 88 51 230 134 315 183 108 62 155 94
154 106 -1 9 -2 179 -3 377 0 198 -4 360 -8 359 -5 0 -111 -61 -238 -134z"/>
<path d="M11130 7892 l0 -378 138 -79 c75 -43 221 -127 324 -187 102 -59 189
-108 192 -108 3 0 6 170 6 378 l0 377 -63 36 c-34 19 -180 104 -324 187 -144
84 -265 152 -268 152 -3 0 -5 -170 -5 -378z"/>
<path d="M12194 8111 c-149 -86 -295 -171 -323 -188 l-51 -32 0 -376 c0 -206
3 -375 7 -375 4 0 32 15 63 33 30 19 175 103 323 187 l267 154 0 378 c0 208
-3 378 -7 377 -5 0 -130 -71 -279 -158z"/>
<path d="M12520 7892 l0 -380 123 -70 c67 -38 209 -120 316 -182 107 -61 200
-114 207 -117 12 -4 14 59 14 373 l0 379 -321 185 c-177 102 -326 187 -330
188 -5 2 -9 -167 -9 -376z"/>
<path d="M13680 8167 c-96 -56 -241 -140 -322 -186 l-148 -84 0 -379 c0 -208
2 -378 5 -378 3 0 132 73 288 163 155 90 301 174 325 187 l42 24 0 378 c0 208
-3 378 -7 378 -5 0 -87 -47 -183 -103z"/>
<path d="M13910 8265 c0 -3 0 -173 -1 -377 l0 -373 48 -29 c118 -70 582 -336
592 -338 13 -3 17 741 4 753 -5 4 -66 41 -138 82 -71 41 -204 117 -295 169
-196 113 -210 120 -210 113z"/>
<path d="M15145 8212 c-55 -32 -200 -116 -322 -187 l-223 -128 0 -379 0 -379
33 17 c50 26 600 345 615 356 9 8 12 97 12 384 0 206 -3 374 -7 374 -5 0 -53
-26 -108 -58z"/>
<path d="M15290 7896 c0 -287 3 -376 13 -383 12 -11 458 -270 580 -337 l67
-38 -2 382 -3 381 -235 135 c-330 190 -407 234 -414 234 -3 0 -6 -168 -6 -374z"/>
<path d="M16560 8227 c-41 -24 -186 -108 -322 -186 l-248 -143 0 -379 0 -380
23 12 c22 11 326 187 527 304 l105 61 3 369 c1 203 -1 372 -6 377 -4 4 -41
-12 -82 -35z"/>
<path d="M0 7100 l0 -382 33 20 c17 11 90 53 162 94 342 196 466 271 458 278
-11 10 -620 360 -638 367 -13 4 -15 -47 -15 -377z"/>
<path d="M1255 7404 c-71 -41 -217 -125 -323 -186 -106 -61 -189 -114 -185
-118 7 -7 422 -249 578 -337 l70 -39 322 185 c177 102 324 189 327 192 6 6
-635 379 -650 379 -5 0 -67 -34 -139 -76z"/>
<path d="M2640 7402 c-437 -252 -510 -296 -503 -303 16 -15 633 -369 644 -369
12 0 89 43 334 185 83 48 190 110 238 137 48 28 86 52 85 53 -10 10 -649 375
-655 375 -4 0 -69 -35 -143 -78z"/>
<path d="M3842 7296 c-173 -101 -314 -187 -314 -192 -1 -5 75 -53 168 -107
416 -240 464 -267 475 -267 19 0 648 364 646 374 -4 12 -635 376 -650 375 -7
-1 -153 -83 -325 -183z"/>
<path d="M5355 7369 c-251 -146 -373 -218 -413 -241 -17 -11 -30 -23 -27 -28
3 -4 51 -34 107 -67 427 -247 526 -303 537 -303 13 0 616 345 639 365 11 10
-51 49 -304 196 -175 101 -325 185 -334 186 -8 1 -100 -48 -205 -108z"/>
<path d="M6870 7441 c-36 -21 -168 -97 -293 -170 -125 -73 -241 -140 -258
-150 l-30 -18 317 -183 c173 -100 324 -184 333 -187 14 -4 626 339 654 366 5
5 -16 22 -45 39 -29 16 -136 78 -238 137 -284 164 -357 205 -366 204 -5 0 -38
-17 -74 -38z"/>
<path d="M8007 7296 c-175 -102 -318 -188 -317 -193 1 -8 602 -359 633 -369
17 -5 100 39 527 286 69 40 128 75 133 79 7 7 -631 381 -649 381 -5 0 -152
-83 -327 -184z"/>
<path d="M9392 7293 c-178 -102 -319 -190 -315 -194 28 -27 640 -370 654 -366
20 5 651 368 647 372 -4 4 -484 282 -548 317 -30 17 -64 37 -75 44 -11 8 -24
14 -30 14 -5 0 -155 -84 -333 -187z"/>
<path d="M10950 7393 c-80 -47 -223 -130 -318 -186 -99 -57 -169 -104 -164
-109 4 -4 151 -91 326 -192 l318 -183 217 125 c386 224 426 248 426 256 0 5
-124 80 -275 167 -151 87 -293 170 -316 184 -23 14 -47 25 -55 24 -8 0 -79
-39 -159 -86z"/>
<path d="M12420 7440 c-36 -21 -177 -103 -315 -183 -137 -79 -250 -148 -252
-153 -2 -9 614 -366 642 -372 8 -2 122 58 252 134 131 75 273 157 316 182 43
25 80 49 82 53 6 8 -632 379 -649 378 -6 0 -40 -18 -76 -39z"/>
<path d="M13565 7299 c-170 -99 -316 -184 -323 -188 -9 -5 94 -70 304 -191
175 -100 325 -185 333 -187 16 -4 75 28 371 199 270 156 292 170 283 178 -17
15 -626 363 -642 366 -9 2 -155 -78 -326 -177z"/>
<path d="M14943 7293 c-178 -103 -319 -190 -315 -194 4 -4 68 -42 142 -84 74
-43 218 -126 320 -185 162 -93 188 -105 205 -95 11 7 97 56 190 110 433 248
447 257 428 270 -43 29 -631 365 -639 365 -5 0 -154 -85 -331 -187z"/>
<path d="M16337 7296 c-175 -101 -318 -188 -319 -192 0 -4 58 -41 128 -82 71
-41 203 -117 294 -170 91 -52 180 -104 198 -114 l32 -20 0 381 c0 210 -3 381
-7 381 -5 0 -151 -83 -326 -184z"/>
<path d="M350 6882 l-325 -188 -3 -377 c-1 -210 2 -377 6 -377 5 0 135 73 288
161 154 89 298 172 322 186 l42 24 0 379 c0 209 -1 380 -2 380 -2 0 -149 -85
-328 -188z"/>
<path d="M720 6692 l0 -380 208 -120 c394 -228 437 -252 444 -252 5 0 7 170 6
377 l-3 378 -280 162 c-154 89 -301 174 -327 188 l-48 26 0 -379z"/>
<path d="M1775 6904 c-160 -92 -307 -178 -327 -191 l-38 -23 0 -376 c0 -347 1
-376 17 -370 9 4 157 88 330 188 l313 181 0 379 c0 208 -1 378 -3 378 -1 0
-133 -75 -292 -166z"/>
<path d="M2112 6690 l3 -382 165 -95 c91 -53 234 -135 317 -184 84 -49 158
-89 163 -89 7 0 9 127 8 377 l-3 377 -120 69 c-143 83 -433 250 -493 285 l-42
24 2 -382z"/>
<path d="M3123 6882 l-323 -187 0 -377 c0 -208 3 -378 6 -378 4 0 152 84 330
187 l324 186 0 379 c0 208 -3 378 -7 377 -5 0 -153 -85 -330 -187z"/>
<path d="M3490 6695 l0 -374 37 -25 c52 -33 612 -356 618 -356 3 0 5 170 5
378 l0 378 -324 187 c-178 103 -327 187 -330 187 -3 0 -5 -169 -6 -375z"/>
<path d="M4760 7025 c-41 -25 -186 -109 -322 -187 l-248 -142 0 -378 c0 -208
3 -378 6 -378 3 0 152 84 330 188 l324 187 0 378 c0 207 -3 377 -7 377 -5 -1
-42 -21 -83 -45z"/>
<path d="M4880 6692 l0 -378 325 -187 c178 -103 327 -187 330 -187 3 0 5 170
5 378 l0 378 -132 76 c-390 224 -521 298 -524 298 -2 0 -4 -170 -4 -378z"/>
<path d="M6030 6957 c-107 -62 -252 -147 -323 -188 l-127 -74 -3 -378 c-1
-207 1 -377 6 -377 4 0 62 32 130 71 67 39 205 119 307 177 102 58 193 112
202 120 16 14 18 45 17 388 0 206 -3 374 -7 374 -4 0 -95 -51 -202 -113z"/>
<path d="M6270 6692 l0 -380 93 -53 c50 -29 192 -110 315 -181 122 -71 229
-131 237 -135 13 -4 15 45 15 373 l-1 379 -321 185 c-176 102 -324 187 -329
188 -5 2 -9 -162 -9 -376z"/>
<path d="M7596 7063 c-4 -5 -147 -89 -319 -188 l-312 -181 -3 -377 c-1 -207 2
-377 6 -377 5 0 78 40 163 89 85 49 228 132 319 184 l165 95 3 381 c1 210 -2
381 -6 381 -5 0 -12 -3 -16 -7z"/>
<path d="M7660 6691 l0 -379 248 -143 c136 -78 281 -162 322 -186 41 -24 78
-43 82 -43 5 0 7 170 6 378 l-3 377 -255 147 c-140 81 -285 166 -323 188 -37
22 -69 40 -72 40 -3 0 -5 -171 -5 -379z"/>
<path d="M8755 6926 c-138 -79 -284 -163 -325 -188 l-75 -44 -3 -378 c-2 -352
-1 -378 15 -372 9 4 138 77 287 163 149 86 290 167 314 181 l42 24 0 379 c0
208 -1 379 -3 379 -1 0 -115 -65 -252 -144z"/>
<path d="M9050 6691 l0 -379 143 -83 c78 -45 222 -128 320 -185 98 -57 183
-104 188 -104 5 0 9 149 9 374 l0 374 -26 17 c-25 16 -568 330 -611 354 l-23
12 0 -380z"/>
<path d="M10063 6882 l-323 -187 0 -379 c0 -328 2 -377 15 -373 8 4 101 56
207 118 106 61 248 143 316 182 l122 70 0 379 c0 208 -3 378 -7 377 -5 0 -153
-85 -330 -187z"/>
<path d="M10430 6695 l0 -376 58 -35 c110 -67 592 -344 600 -344 4 0 6 170 4
378 l-2 378 -324 187 c-178 103 -327 187 -330 187 -3 0 -6 -169 -6 -375z"/>
<path d="M11453 6882 l-323 -187 0 -379 c0 -304 3 -377 13 -373 7 3 112 62
232 132 121 70 264 152 318 183 l97 57 0 377 c0 208 -3 378 -7 378 -5 -1 -153
-85 -330 -188z"/>
<path d="M11820 6692 l0 -377 321 -185 c176 -102 324 -186 330 -188 5 -2 9
142 9 375 l0 380 -132 75 c-73 42 -220 126 -326 187 -106 61 -195 111 -197
111 -3 0 -5 -170 -5 -378z"/>
<path d="M12843 6882 l-323 -187 0 -377 c0 -208 2 -378 5 -378 3 0 76 41 163
91 86 50 220 127 297 172 77 44 152 89 168 99 l27 19 0 375 c0 206 -3 374 -7
374 -5 -1 -153 -85 -330 -188z"/>
<path d="M13210 6692 l0 -378 53 -30 c461 -267 596 -344 601 -344 3 0 6 170 6
378 l0 377 -73 42 c-39 22 -186 107 -325 187 -140 80 -255 146 -258 146 -2 0
-4 -170 -4 -378z"/>
<path d="M14230 6882 l-325 -188 -3 -377 c-1 -222 2 -377 7 -377 8 0 262 144
559 317 l92 54 0 380 c0 208 -1 379 -2 379 -2 0 -149 -85 -328 -188z"/>
<path d="M14600 6692 l0 -380 53 -30 c28 -16 120 -69 202 -117 232 -134 392
-225 399 -225 3 0 6 170 6 378 l0 377 -322 185 c-177 102 -326 187 -330 188
-4 2 -8 -167 -8 -376z"/>
<path d="M15615 6881 l-320 -186 -3 -377 c-1 -208 1 -378 4 -378 7 0 248 137
519 293 l130 76 3 380 c1 210 -1 381 -5 380 -5 -1 -152 -85 -328 -188z"/>
<path d="M15992 6690 l3 -381 105 -61 c377 -218 519 -298 534 -304 15 -6 16
23 14 372 l-3 378 -145 84 c-248 144 -464 268 -488 281 l-22 12 2 -381z"/>
<path d="M385 6100 c-366 -213 -341 -197 -335 -203 3 -2 151 -88 328 -191
l324 -186 91 54 c120 70 303 176 444 257 62 35 113 67 113 70 0 6 -615 364
-641 373 -8 3 -153 -76 -324 -174z"/>
<path d="M1815 6124 c-149 -86 -294 -169 -322 -186 -29 -16 -53 -33 -53 -36 0
-4 98 -63 217 -132 119 -69 264 -153 322 -186 l106 -62 41 22 c82 42 613 351
614 356 0 3 -24 19 -52 36 -204 118 -598 344 -600 344 -2 0 -125 -70 -273
-156z"/>
<path d="M3385 6231 c-44 -26 -141 -83 -215 -125 -272 -158 -340 -199 -340
-206 0 -3 107 -68 238 -143 130 -75 275 -158 321 -186 l85 -50 66 37 c244 137
589 338 590 342 0 3 -60 40 -132 82 -73 42 -220 126 -325 187 -106 61 -196
111 -200 110 -5 0 -44 -22 -88 -48z"/>
<path d="M4685 6180 c-93 -55 -238 -139 -322 -187 -83 -49 -149 -91 -147 -94
2 -3 45 -30 96 -59 51 -30 194 -112 318 -183 123 -72 229 -130 235 -130 16 0
660 372 653 377 -2 2 -122 72 -268 156 -146 83 -291 167 -323 186 -32 19 -61
34 -65 33 -4 0 -83 -45 -177 -99z"/>
<path d="M6150 6223 c-52 -30 -196 -114 -320 -185 -124 -71 -227 -132 -230
-135 -3 -3 0 -7 6 -10 10 -3 77 -42 467 -269 l178 -104 202 117 c111 64 234
134 272 156 39 22 96 55 128 74 l58 35 -113 66 c-373 216 -542 312 -547 312
-3 -1 -49 -26 -101 -57z"/>
<path d="M7313 6093 c-178 -103 -323 -189 -323 -193 0 -3 64 -42 143 -86 78
-45 225 -129 326 -188 l183 -106 152 88 c83 49 229 133 323 188 95 54 173 102
173 105 0 4 -84 55 -187 114 -104 60 -244 141 -313 181 -69 40 -132 75 -140
78 -9 3 -154 -75 -337 -181z"/>
<path d="M8705 6095 c-176 -102 -321 -188 -322 -192 -2 -5 46 -36 105 -70 59
-33 205 -118 324 -186 l218 -126 177 103 c98 56 244 140 325 187 81 46 148 87
148 90 0 4 -98 63 -217 131 -120 69 -262 151 -316 182 -53 31 -103 59 -110 61
-6 3 -156 -78 -332 -180z"/>
<path d="M10325 6230 c-44 -26 -187 -109 -317 -185 -131 -75 -238 -140 -238
-144 0 -4 146 -91 324 -194 l324 -187 194 113 c106 62 250 146 320 186 70 40
130 76 132 80 3 4 -23 23 -57 43 -34 19 -150 86 -257 148 -299 173 -329 190
-337 189 -4 0 -44 -22 -88 -49z"/>
<path d="M11473 6092 c-177 -103 -320 -189 -318 -193 3 -3 62 -39 132 -79 70
-40 213 -123 318 -183 104 -61 194 -110 200 -110 6 0 112 58 236 130 123 71
268 154 321 184 54 30 97 56 97 59 1 6 -637 374 -652 377 -7 1 -157 -82 -334
-185z"/>
<path d="M12863 6092 c-245 -142 -319 -190 -310 -198 10 -10 180 -108 602
-350 l40 -23 35 21 c66 39 435 251 523 301 48 27 86 54 85 59 -4 10 -635 379
-647 377 -3 0 -151 -84 -328 -187z"/>
<path d="M14253 6092 c-178 -102 -323 -189 -323 -192 0 -3 147 -89 326 -192
l325 -188 152 88 c84 49 230 133 324 188 95 54 173 102 173 105 0 6 -107 70
-385 229 -99 56 -197 113 -217 126 -21 13 -41 24 -45 24 -5 -1 -153 -85 -330
-188z"/>
<path d="M15645 6095 c-176 -102 -321 -188 -322 -193 -2 -4 106 -70 240 -146
133 -76 279 -161 324 -188 l81 -48 254 147 c139 80 286 165 325 187 40 23 73
44 73 48 0 4 -10 13 -22 19 -25 13 -276 157 -478 275 -69 40 -132 75 -140 78
-9 3 -152 -73 -335 -179z"/>
<path d="M25 5862 c-8 -8 -6 -736 3 -748 4 -5 72 -48 152 -94 309 -178 456
-263 478 -277 l22 -13 0 382 -1 383 -147 85 c-81 46 -227 130 -324 186 -97 56
-180 99 -183 96z"/>
<path d="M1170 5754 c-107 -62 -252 -146 -322 -186 l-127 -73 -1 -382 0 -383
83 49 c83 49 457 265 535 309 l42 24 0 379 c0 208 -3 379 -7 378 -5 -1 -96
-52 -203 -115z"/>
<path d="M1410 5491 l0 -379 113 -65 c61 -36 210 -121 330 -190 l217 -126 0
382 -1 382 -122 69 c-67 38 -202 116 -299 172 -97 57 -191 110 -207 119 l-31
16 0 -380z"/>
<path d="M2525 5735 c-126 -74 -271 -158 -322 -187 l-92 -53 -3 -378 c-2 -214
1 -377 6 -377 5 0 151 82 325 182 174 100 317 182 318 183 5 3 8 765 3 764 -3
0 -108 -61 -235 -134z"/>
<path d="M2802 5489 l3 -381 319 -184 c175 -101 322 -184 327 -184 5 0 8 161
7 377 l-3 377 -290 168 c-159 93 -307 178 -328 189 l-37 20 2 -382z"/>
<path d="M3820 5680 l-325 -189 -3 -377 c-2 -355 -1 -376 15 -372 19 6 595
336 626 360 16 12 17 38 15 389 l-3 377 -325 -188z"/>
<path d="M4192 5489 l3 -382 280 -161 c154 -89 301 -175 328 -190 l47 -28 -2
382 -3 383 -285 164 c-157 90 -304 175 -328 189 l-42 25 2 -382z"/>
<path d="M5215 5684 c-176 -102 -323 -188 -328 -193 -4 -4 -6 -176 -5 -383 l3
-376 155 90 c85 49 231 133 324 186 92 53 170 101 172 107 2 5 3 177 2 382
l-3 371 -320 -184z"/>
<path d="M5578 5843 c-2 -16 -1 -188 2 -382 l5 -355 315 -182 c173 -101 321
-183 328 -184 10 0 12 78 10 376 l-3 376 -315 182 c-173 100 -320 185 -327
189 -8 5 -13 -2 -15 -20z"/>
<path d="M6790 5792 c-315 -183 -504 -292 -512 -294 -4 -2 -7 -175 -6 -384 l3
-382 325 189 325 188 3 190 c1 105 1 277 0 381 l-3 190 -135 -78z"/>
<path d="M6970 5857 c-1 -7 -1 -178 -1 -381 l0 -369 108 -62 c140 -80 423
-244 491 -283 l52 -31 0 382 -1 382 -112 64 c-62 36 -208 120 -324 187 -117
68 -213 118 -213 111z"/>
<path d="M7988 5683 l-327 -188 -1 -382 0 -382 183 106 c100 58 248 144 330
190 l147 85 0 379 c0 209 -1 379 -3 379 -1 0 -150 -84 -329 -187z"/>
<path d="M8352 5489 l3 -380 140 -81 c77 -44 224 -129 328 -188 l187 -109 0
382 -1 382 -271 155 c-149 85 -296 170 -326 188 -30 17 -56 32 -58 32 -2 0 -3
-171 -2 -381z"/>
<path d="M9373 5681 l-322 -186 -1 -379 c0 -324 2 -377 14 -373 8 3 75 41 148
83 73 42 212 122 308 177 96 55 176 101 177 102 4 3 5 756 1 759 -1 2 -148
-81 -325 -183z"/>
<path d="M9740 5491 l0 -379 198 -115 c108 -63 256 -148 327 -189 l130 -75 3
371 c1 204 0 376 -2 382 -2 6 -93 62 -202 124 -110 63 -255 147 -323 187 -67
40 -125 73 -127 73 -2 0 -4 -171 -4 -379z"/>
<path d="M10895 5758 c-104 -60 -230 -133 -280 -162 -49 -29 -111 -65 -137
-80 l-48 -27 0 -374 c0 -245 3 -375 10 -375 6 0 56 26 113 58 316 181 514 297
527 311 13 14 14 66 10 387 l-5 371 -190 -109z"/>
<path d="M11132 5489 l3 -383 319 -183 c175 -101 322 -183 327 -183 5 0 8 155
7 376 l-3 376 -155 90 c-85 50 -229 133 -320 185 -91 53 -168 97 -173 100 -4
2 -6 -168 -5 -378z"/>
<path d="M12150 5680 l-325 -188 -3 -381 -2 -382 42 25 c302 173 605 349 611
355 4 4 6 177 5 383 l-3 377 -325 -189z"/>
<path d="M12522 5489 l3 -383 315 -182 c173 -101 321 -183 328 -184 10 0 12
78 10 376 l-3 376 -125 72 c-69 40 -201 117 -295 171 -93 54 -185 106 -203
117 l-32 20 2 -383z"/>
<path d="M13580 5705 c-157 -90 -304 -176 -327 -189 l-43 -26 0 -381 0 -381
23 14 c12 8 72 43 132 78 61 34 199 114 308 177 l197 115 0 379 c0 208 -1 379
-2 379 -2 0 -131 -74 -288 -165z"/>
<path d="M13908 5865 c-2 -2 -2 -174 0 -382 l3 -378 82 -45 c45 -25 189 -108
320 -184 131 -76 240 -136 243 -134 3 3 5 174 5 379 l-1 374 -97 56 c-54 30
-200 114 -325 186 -124 72 -228 130 -230 128z"/>
<path d="M15180 5827 c-416 -239 -557 -321 -568 -331 -9 -9 -12 -95 -10 -388
l3 -376 115 67 c63 37 211 123 328 191 l212 122 0 379 c0 209 -1 379 -2 379
-2 0 -37 -20 -78 -43z"/>
<path d="M15290 5492 l0 -380 183 -105 c100 -57 248 -143 330 -190 l147 -86 0
382 -1 382 -321 185 c-177 102 -325 187 -330 188 -4 2 -8 -167 -8 -376z"/>
<path d="M16313 5681 l-322 -186 -1 -381 0 -382 323 186 c177 102 325 190 329
196 10 14 10 744 1 749 -5 2 -153 -80 -330 -182z"/>
<path d="M0 4701 c0 -210 2 -381 5 -381 4 0 39 20 320 183 66 38 168 97 227
131 59 33 108 63 108 66 0 3 -80 50 -177 105 -97 55 -213 122 -257 148 -45 27
-114 66 -153 88 l-73 40 0 -380z"/>
<path d="M1067 4892 c-179 -103 -326 -189 -326 -192 -1 -4 627 -369 648 -378
4 -1 64 30 132 70 68 39 216 124 327 189 197 114 203 118 180 132 -46 28 -563
326 -629 363 -3 1 -152 -81 -332 -184z"/>
<path d="M2615 4984 c-88 -51 -233 -135 -322 -186 -90 -51 -163 -95 -163 -98
0 -3 62 -41 138 -84 75 -44 222 -129 325 -188 103 -60 191 -107 195 -105 84
44 642 371 642 376 0 7 -645 382 -652 380 -2 -1 -75 -43 -163 -95z"/>
<path d="M4110 5046 c-60 -35 -426 -248 -527 -305 -35 -20 -63 -38 -63 -41 0
-7 -8 -2 343 -204 l308 -177 117 67 c124 72 352 204 465 269 37 22 67 42 67
45 0 3 -60 40 -132 82 -73 42 -220 126 -326 187 -106 61 -194 111 -195 110 -1
0 -27 -15 -57 -33z"/>
<path d="M5385 4980 c-93 -55 -239 -139 -322 -187 -84 -48 -153 -91 -153 -94
0 -4 35 -26 78 -51 42 -24 188 -109 324 -187 l246 -142 69 39 c37 21 172 99
298 172 127 73 242 140 257 149 16 9 28 18 28 21 -1 3 -65 42 -143 87 -78 44
-224 129 -325 187 -100 58 -184 106 -185 105 -1 0 -78 -45 -172 -99z"/>
<path d="M6630 4897 c-173 -100 -321 -186 -328 -191 -9 -5 66 -53 230 -148
134 -77 281 -162 327 -190 l85 -49 42 23 c139 77 614 354 614 358 0 3 -60 39
-133 80 -72 41 -219 126 -326 187 -106 62 -194 113 -195 113 0 0 -143 -83
-316 -183z"/>
<path d="M8050 4915 c-157 -90 -305 -176 -329 -190 l-45 -27 55 -31 c30 -17
177 -102 327 -189 151 -87 275 -158 277 -158 1 0 133 75 291 167 159 92 306
176 327 188 29 17 35 24 25 32 -10 8 -386 226 -603 349 l-41 23 -284 -164z"/>
<path d="M9625 5024 c-49 -30 -195 -114 -322 -186 -128 -73 -233 -135 -233
-138 0 -3 35 -25 78 -49 42 -24 118 -68 167 -97 50 -29 161 -93 248 -143 l157
-91 33 16 c17 9 73 40 122 70 50 29 184 106 298 173 201 116 208 120 185 134
-60 38 -619 358 -630 361 -7 2 -53 -20 -103 -50z"/>
<path d="M10894 4954 c-120 -69 -267 -154 -326 -188 -59 -33 -108 -63 -108
-66 0 -3 147 -91 327 -194 295 -170 329 -187 347 -176 12 8 147 86 301 175
320 185 325 188 325 196 0 3 -19 16 -42 29 -48 26 -525 302 -574 331 l-31 19
-219 -126z"/>
<path d="M12320 4977 c-96 -56 -241 -140 -322 -187 -82 -46 -148 -87 -148 -90
0 -6 56 -40 408 -242 l243 -140 127 74 c70 41 216 126 325 188 108 63 197 117
197 120 0 3 -51 34 -113 69 -143 83 -315 182 -440 254 -54 31 -99 57 -100 57
-1 -1 -81 -47 -177 -103z"/>
<path d="M13735 4992 c-82 -48 -228 -132 -322 -187 -95 -54 -173 -102 -173
-106 0 -9 625 -371 644 -373 13 -1 656 365 656 374 -1 4 -628 369 -649 377 -3
1 -73 -37 -156 -85z"/>
<path d="M15174 5021 c-54 -32 -196 -113 -314 -181 -118 -68 -220 -128 -227
-134 -9 -8 28 -34 150 -104 89 -50 236 -135 327 -188 138 -79 168 -93 185 -85
11 6 85 49 165 95 80 47 218 127 307 178 123 70 159 96 150 104 -10 9 -564
331 -623 362 -17 9 -36 2 -120 -47z"/>
<path d="M16338 4893 c-180 -104 -327 -190 -327 -193 -1 -3 32 -24 72 -47 39
-22 186 -107 326 -187 140 -80 256 -145 258 -143 2 2 2 173 1 381 l-3 376
-327 -187z"/>
<path d="M720 4287 l1 -382 162 -93 c89 -51 236 -135 326 -187 90 -52 165 -95
167 -95 2 0 4 170 4 379 l0 378 -182 105 c-101 58 -249 144 -330 191 l-148 86
0 -382z"/>
<path d="M1935 4592 c-71 -41 -182 -105 -245 -142 -63 -37 -152 -88 -197 -114
l-83 -48 0 -379 0 -380 23 12 c20 11 373 214 550 316 43 25 81 51 83 57 2 6 3
178 2 382 l-3 370 -130 -74z"/>
<path d="M4520 4481 l-325 -189 -3 -382 -2 -382 37 22 c21 13 128 74 238 138
110 63 242 139 293 169 l92 54 0 380 c0 208 -1 379 -2 379 -2 -1 -149 -85
-328 -189z"/>
<path d="M5910 4482 l-325 -187 -5 -383 c-3 -210 -4 -382 -2 -382 2 0 88 49
190 109 103 59 251 145 329 190 l143 82 -1 380 c0 208 -1 379 -2 379 -1 0
-148 -85 -327 -188z"/>
<path d="M6272 4289 l3 -383 85 -49 c68 -40 533 -307 563 -324 4 -2 6 167 5
377 l-3 382 -125 72 c-69 40 -201 116 -295 170 -93 54 -185 107 -203 118 l-32
20 2 -383z"/>
<path d="M8835 4567 c-93 -53 -241 -138 -327 -188 l-158 -90 0 -381 0 -380 65
37 c36 20 181 103 323 186 141 82 260 150 265 152 4 1 6 173 5 382 l-3 380
-170 -98z"/>
<path d="M14370 4559 c-102 -60 -249 -146 -327 -190 l-143 -82 0 -373 c0 -205
3 -375 8 -377 4 -2 152 80 329 182 l323 186 0 383 c0 210 -1 382 -2 381 -2 -1
-86 -50 -188 -110z"/>
<path d="M14602 4290 l3 -383 105 -62 c157 -92 533 -310 542 -313 4 -2 8 167
8 377 l0 380 -77 44 c-145 82 -538 310 -561 325 l-22 14 2 -382z"/>
<path d="M15715 4534 c-126 -73 -274 -159 -327 -190 l-98 -57 0 -379 c0 -209
4 -378 8 -376 5 2 153 86 330 188 l321 185 1 383 c0 210 -1 382 -2 381 -2 -1
-106 -61 -233 -135z"/>
<path d="M530 4582 c-74 -43 -219 -127 -322 -187 l-188 -108 0 -379 c0 -209 4
-378 9 -376 4 2 153 86 329 188 l321 185 1 378 c0 207 -4 377 -8 377 -4 0 -68
-35 -142 -78z"/>
<path d="M2110 4283 l0 -378 322 -185 c176 -102 325 -186 329 -188 5 -2 9 166
9 375 l0 378 -323 188 c-178 103 -326 187 -330 187 -4 0 -7 -170 -7 -377z"/>
<path d="M3355 4611 c-44 -26 -183 -107 -310 -180 -126 -73 -233 -136 -238
-140 -4 -4 -6 -177 -5 -384 l3 -376 325 187 325 188 3 377 c2 299 0 377 -10
376 -7 0 -49 -22 -93 -48z"/>
<path d="M3490 4286 l0 -375 203 -117 c111 -64 258 -149 327 -189 l125 -72 3
375 c2 293 -1 379 -10 387 -21 19 -625 365 -637 365 -8 0 -11 -114 -11 -374z"/>
<path d="M4880 4286 l0 -375 93 -54 c50 -30 182 -106 292 -170 110 -63 217
-125 238 -137 l37 -22 -2 382 -3 383 -318 183 c-175 101 -322 184 -328 184 -5
0 -9 -148 -9 -374z"/>
<path d="M7470 4582 c-74 -44 -219 -128 -323 -187 l-187 -108 0 -379 1 -379
77 43 c43 24 191 108 330 188 l252 145 0 378 c0 207 -3 377 -8 377 -4 0 -68
-35 -142 -78z"/>
<path d="M7660 4283 l0 -378 73 -41 c39 -22 178 -101 307 -176 129 -74 245
-140 258 -147 l22 -12 0 379 0 379 -112 66 c-328 190 -533 307 -540 307 -4 0
-8 -170 -8 -377z"/>
<path d="M9050 4284 l0 -379 322 -185 c177 -102 325 -186 330 -188 4 -2 8 167
8 376 l0 379 -187 108 c-104 60 -245 142 -315 182 -69 40 -133 76 -142 79 -14
6 -16 -31 -16 -372z"/>
<path d="M10135 4518 c-132 -77 -274 -159 -315 -183 l-75 -43 -3 -381 c-1
-210 1 -380 5 -378 110 63 509 293 568 327 l80 46 3 377 c2 299 0 377 -10 376
-7 0 -121 -64 -253 -141z"/>
<path d="M10430 4287 l0 -375 138 -80 c332 -193 522 -301 522 -294 4 118 -3
758 -8 760 -4 1 -144 81 -312 178 -168 97 -313 179 -322 181 -17 5 -18 -17
-18 -370z"/>
<path d="M11660 4597 c-58 -33 -199 -116 -315 -183 l-210 -122 -3 -381 -2
-381 57 32 c32 18 180 103 328 189 l270 157 3 376 c2 298 0 376 -10 375 -7 0
-60 -28 -118 -62z"/>
<path d="M11822 4284 l3 -376 270 -157 c149 -86 296 -171 328 -189 l57 -32 0
379 0 380 -92 54 c-51 30 -151 88 -223 129 -71 42 -174 101 -227 132 -54 31
-102 56 -108 56 -7 0 -9 -125 -8 -376z"/>
<path d="M12847 4480 c-170 -98 -313 -182 -318 -187 -5 -5 -8 -167 -7 -385 l3
-376 325 188 325 188 2 376 c2 290 0 376 -10 375 -7 0 -151 -80 -320 -179z"/>
<path d="M13212 4283 l3 -377 325 -187 325 -188 3 376 c1 207 -1 380 -5 384
-8 7 -174 104 -482 281 -85 48 -159 88 -163 88 -5 0 -7 -170 -6 -377z"/>
<path d="M15992 4283 l3 -378 165 -96 c91 -52 236 -137 323 -187 87 -51 160
-92 163 -92 2 0 4 170 4 379 l0 378 -323 187 c-178 102 -327 186 -330 186 -4
0 -6 -170 -5 -377z"/>
<path d="M2040 3850 c-25 -15 -172 -101 -328 -190 -194 -112 -279 -166 -269
-171 8 -5 155 -89 327 -189 172 -99 315 -180 319 -180 3 0 85 45 181 101 96
55 242 139 323 186 120 69 146 88 135 98 -9 9 -603 353 -638 370 -3 1 -25 -10
-50 -25z"/>
<path d="M3330 3793 c-80 -47 -164 -95 -187 -108 -108 -61 -309 -178 -315
-184 -4 -3 84 -59 195 -123 111 -64 257 -148 324 -187 68 -39 126 -71 130 -71
5 0 55 28 113 61 58 34 195 113 305 177 110 63 208 120 218 127 17 12 9 19
-75 68 -75 44 -339 196 -528 305 l-35 20 -145 -85z"/>
<path d="M10087 3687 l-328 -190 68 -40 c370 -215 583 -337 591 -337 6 0 633
359 645 370 5 4 -45 39 -110 77 -109 65 -522 303 -533 308 -3 1 -153 -83 -333
-188z"/>
<path d="M13163 3861 c-15 -10 -152 -89 -303 -175 -357 -205 -326 -185 -303
-200 18 -13 489 -285 588 -341 l50 -28 325 188 c179 103 326 189 328 190 2 2
-404 240 -600 351 -55 31 -57 32 -85 15z"/>
<path d="M14348 3743 c-128 -74 -264 -153 -303 -175 -38 -21 -81 -47 -94 -57
l-23 -18 78 -45 c44 -24 181 -104 306 -176 125 -73 238 -137 251 -143 20 -9
58 10 312 157 160 92 307 177 328 189 l38 22 -153 88 c-84 49 -232 134 -330
191 l-176 101 -234 -134z"/>
<path d="M474 3747 c-116 -67 -259 -149 -317 -182 -59 -33 -105 -64 -104 -68
1 -5 74 -50 162 -101 88 -50 233 -134 323 -185 l162 -94 198 113 c328 188 452
262 452 269 -1 9 -636 371 -651 371 -8 -1 -109 -56 -225 -123z"/>
<path d="M4549 3696 c-163 -94 -306 -178 -318 -186 -21 -14 -8 -23 302 -202
178 -104 326 -188 331 -188 4 0 93 50 199 111 106 61 252 145 324 187 73 42
129 79 125 83 -8 8 -561 328 -611 353 -16 9 -36 16 -43 15 -7 0 -146 -78 -309
-173z"/>
<path d="M6110 3796 c-69 -40 -206 -119 -305 -176 -99 -57 -186 -108 -193
-114 -13 -13 -18 -10 397 -249 124 -71 230 -131 236 -134 9 -3 642 352 663
372 2 1 -48 32 -110 68 -62 36 -207 119 -323 186 -115 67 -216 121 -225 120
-8 0 -71 -33 -140 -73z"/>
<path d="M7525 3811 c-55 -32 -192 -111 -305 -176 -113 -64 -211 -123 -218
-130 -14 -12 32 -40 509 -314 l127 -73 38 20 c96 50 608 350 611 358 3 11
-613 366 -642 371 -11 1 -65 -24 -120 -56z"/>
<path d="M8692 3683 c-270 -155 -321 -188 -305 -196 10 -6 157 -91 327 -189
170 -98 311 -178 315 -178 3 0 85 45 181 101 96 55 241 139 323 186 81 46 147
88 147 91 -1 4 -62 42 -138 85 -75 42 -218 124 -317 182 -99 57 -187 104 -195
105 -8 0 -161 -84 -338 -187z"/>
<path d="M11473 3687 c-171 -100 -314 -184 -317 -187 -3 -3 57 -41 132 -85 75
-43 200 -115 277 -160 77 -45 163 -94 191 -110 l51 -28 274 158 c151 87 298
172 326 189 29 16 50 33 45 37 -6 6 -386 228 -575 336 -33 18 -66 33 -75 32
-10 0 -157 -83 -329 -182z"/>
<path d="M15790 3774 c-91 -53 -236 -137 -323 -186 l-157 -91 157 -91 c489
-283 500 -288 525 -275 12 6 159 90 326 187 245 141 301 177 290 187 -23 22
-625 365 -639 365 -8 0 -88 -44 -179 -96z"/>
<path d="M23 3083 l2 -377 325 -188 325 -188 3 377 c1 207 -1 380 -5 384 -5 4
-69 42 -143 85 -74 42 -216 124 -315 181 -99 56 -183 103 -187 103 -4 0 -6
-170 -5 -377z"/>
<path d="M1038 3273 l-318 -185 0 -379 c0 -209 3 -378 8 -376 197 112 630 362
640 370 18 14 18 757 0 756 -7 -1 -156 -84 -330 -186z"/>
<path d="M1410 3087 c0 -288 3 -377 13 -385 13 -11 638 -372 644 -372 1 0 3
171 3 379 l0 379 -314 181 c-172 99 -321 183 -330 187 -15 6 -16 -27 -16 -369z"/>
<path d="M2630 3391 c-63 -38 -206 -121 -317 -185 l-203 -117 -2 -376 c-2
-206 -1 -376 3 -378 3 -2 150 80 328 183 l322 187 2 378 c1 246 -1 377 -8 376
-5 0 -62 -31 -125 -68z"/>
<path d="M2800 3084 l0 -379 108 -61 c59 -34 205 -119 326 -188 120 -69 220
-126 222 -126 2 0 4 171 4 380 l0 379 -32 17 c-18 10 -160 91 -315 180 -154
90 -288 167 -297 170 -14 6 -16 -30 -16 -372z"/>
<path d="M3965 3360 c-93 -55 -239 -139 -322 -187 l-153 -88 0 -377 c0 -208 3
-378 6 -378 3 0 151 84 330 187 l324 187 0 378 c0 208 -3 378 -7 377 -5 0 -84
-45 -178 -99z"/>
<path d="M4190 3083 l0 -378 138 -79 c344 -199 513 -296 517 -296 3 0 5 170 5
378 l0 377 -324 188 c-179 103 -327 187 -330 187 -3 0 -6 -170 -6 -377z"/>
<path d="M5460 3421 c-36 -21 -153 -89 -260 -151 -107 -62 -223 -129 -257
-149 l-63 -36 0 -377 c0 -208 2 -378 5 -378 4 0 158 88 517 296 l138 79 0 378
c0 207 -3 377 -7 377 -5 0 -37 -17 -73 -39z"/>
<path d="M5577 3083 c2 -207 4 -377 5 -379 10 -9 645 -374 652 -374 3 0 5 168
6 373 0 424 10 379 -95 437 -33 18 -100 57 -150 86 -280 163 -405 234 -412
234 -4 0 -7 -169 -6 -377z"/>
<path d="M6680 3324 c-129 -75 -274 -159 -322 -187 l-88 -51 0 -379 c0 -208 4
-377 9 -375 4 2 153 86 329 188 l322 185 0 378 c0 207 -3 377 -7 377 -5 0
-114 -61 -243 -136z"/>
<path d="M6970 3448 c0 -7 -1 -177 0 -377 0 -336 1 -365 17 -376 28 -19 607
-353 624 -360 12 -4 13 47 9 376 l-5 381 -319 184 c-176 101 -321 184 -323
184 -1 0 -3 -6 -3 -12z"/>
<path d="M8130 3359 c-96 -56 -241 -139 -322 -186 l-148 -85 0 -379 0 -380 48
26 c26 14 173 99 327 188 l280 162 3 378 c1 207 -1 377 -5 377 -5 0 -87 -46
-183 -101z"/>
<path d="M8352 3084 l3 -379 280 -162 c154 -89 301 -174 328 -188 l47 -26 0
379 0 380 -314 181 c-172 99 -321 183 -330 187 -15 6 -16 -25 -14 -372z"/>
<path d="M9505 3353 c-99 -58 -242 -141 -317 -185 l-138 -80 -2 -379 c-3 -334
-1 -379 12 -373 8 3 89 48 180 101 91 52 231 134 313 181 92 53 147 91 147
101 0 9 1 179 3 379 1 237 -1 362 -8 361 -5 0 -91 -48 -190 -106z"/>
<path d="M9740 3084 l0 -379 118 -67 c64 -36 211 -121 326 -187 115 -67 211
-121 213 -121 1 0 3 170 3 379 l0 378 -77 45 c-43 25 -184 106 -314 181 -130
75 -243 139 -252 143 -16 6 -17 -25 -17 -372z"/>
<path d="M10779 3287 c-163 -95 -308 -180 -322 -190 l-27 -17 0 -375 c0 -206
3 -375 6 -375 3 0 108 59 232 131 125 72 271 156 325 187 l97 57 1 350 c1 192
2 362 3 378 2 15 -2 27 -8 26 -6 0 -144 -78 -307 -172z"/>
<path d="M11130 3083 l0 -378 320 -185 c177 -102 325 -186 330 -188 6 -2 10
134 10 375 l0 379 -127 74 c-363 209 -523 300 -528 300 -3 0 -5 -170 -5 -377z"/>
<path d="M12385 3412 c-44 -26 -189 -111 -322 -187 l-243 -140 0 -377 c0 -208
2 -378 5 -378 3 0 152 84 330 187 l325 188 0 377 c0 208 -3 378 -7 378 -5 0
-44 -22 -88 -48z"/>
<path d="M12520 3082 l0 -377 324 -188 c179 -103 327 -187 330 -187 3 0 6 169
6 375 l0 374 -22 16 c-13 9 -68 42 -123 74 -55 32 -191 110 -302 174 -110 64
-204 117 -207 117 -3 0 -6 -170 -6 -378z"/>
<path d="M13655 3344 c-110 -64 -255 -148 -322 -187 l-123 -71 0 -378 c0 -208
2 -378 5 -378 2 0 131 73 287 163 156 90 302 174 326 187 l42 24 0 378 c0 208
-3 378 -7 378 -5 0 -98 -52 -208 -116z"/>
<path d="M13908 3083 c2 -285 5 -380 15 -386 6 -4 152 -89 322 -187 l310 -179
3 376 c1 207 -1 380 -5 384 -5 4 -138 83 -298 174 -159 92 -299 174 -310 181
-11 8 -24 14 -30 14 -7 0 -9 -124 -7 -377z"/>
<path d="M14922 3274 l-322 -187 0 -378 0 -379 48 24 c26 14 173 98 327 188
l280 163 3 378 c1 207 -1 377 -6 377 -4 0 -152 -84 -330 -186z"/>
<path d="M15292 3084 l3 -379 265 -153 c146 -85 293 -169 328 -189 l62 -35 0
380 0 380 -312 180 c-172 100 -321 184 -331 187 -16 7 -17 -13 -15 -371z"/>
<path d="M16525 3397 c-298 -170 -521 -300 -528 -306 -4 -4 -6 -177 -5 -384
l3 -378 305 177 c168 97 315 183 328 190 l22 14 0 375 c0 206 -3 375 -7 375
-5 0 -57 -28 -118 -63z"/>
<path d="M0 2290 l0 -382 23 14 c12 9 69 42 127 75 58 33 196 112 308 177 180
105 201 120 185 131 -30 21 -607 353 -626 361 -16 6 -17 -18 -17 -376z"/>
<path d="M1185 2554 c-110 -64 -255 -148 -323 -186 -68 -39 -120 -74 -115 -78
12 -11 580 -339 619 -357 l33 -16 143 82 c79 46 225 131 326 188 159 93 180
107 165 118 -40 28 -631 365 -639 365 -5 0 -99 -52 -209 -116z"/>
<path d="M2660 2604 c-320 -184 -530 -306 -530 -309 0 -2 64 -41 143 -86 78
-46 196 -114 262 -153 206 -119 237 -136 247 -136 6 0 85 43 177 96 91 53 237
137 324 186 l157 91 -52 32 c-100 61 -597 345 -605 345 -5 0 -60 -30 -123 -66z"/>
<path d="M3855 2494 c-165 -96 -310 -180 -322 -187 -20 -11 -3 -23 210 -146
128 -73 273 -158 323 -187 51 -30 97 -54 103 -54 6 0 118 62 248 137 131 75
277 159 325 187 l87 50 -62 36 c-295 174 -588 340 -599 339 -7 0 -148 -79
-313 -175z"/>
<path d="M5345 2553 c-110 -64 -255 -148 -322 -188 l-123 -71 63 -36 c34 -20
180 -104 323 -187 144 -83 267 -151 273 -151 6 0 130 68 274 152 144 83 286
165 316 182 30 17 54 35 53 40 0 11 -629 376 -645 375 -7 0 -102 -52 -212
-116z"/>
<path d="M6613 2483 l-323 -187 43 -26 c91 -57 605 -350 613 -350 11 0 151 79
587 333 38 22 65 43 60 47 -17 16 -624 362 -641 366 -9 2 -162 -80 -339 -183z"/>
<path d="M8007 2486 c-175 -101 -317 -188 -315 -192 1 -5 117 -76 257 -157
365 -212 379 -220 399 -212 9 3 158 88 330 187 l314 181 -44 27 c-94 59 -606
350 -614 350 -5 0 -152 -83 -327 -184z"/>
<path d="M9600 2604 c-356 -205 -516 -298 -523 -304 -5 -4 72 -54 170 -110 98
-57 219 -128 268 -157 50 -29 117 -68 151 -85 l61 -32 319 184 c175 101 323
186 327 190 5 4 -20 23 -55 42 -35 20 -135 77 -223 128 -330 191 -363 210
-372 210 -5 0 -60 -30 -123 -66z"/>
<path d="M11050 2641 c-25 -16 -168 -99 -319 -186 -251 -146 -273 -160 -255
-173 62 -45 630 -363 643 -359 13 4 437 245 603 344 l48 28 -98 56 c-53 31
-199 116 -324 188 -125 72 -233 131 -240 130 -7 0 -33 -13 -58 -28z"/>
<path d="M12430 2636 c-30 -18 -147 -86 -260 -151 -113 -65 -233 -135 -267
-155 l-63 -37 88 -50 c48 -27 194 -111 324 -186 130 -75 242 -137 247 -137 10
0 99 50 490 277 84 49 154 92 155 97 0 4 -42 33 -94 63 -403 234 -543 313
-553 312 -7 0 -37 -15 -67 -33z"/>
<path d="M13600 2510 c-151 -87 -297 -172 -323 -188 l-49 -28 79 -45 c43 -25
189 -109 324 -187 135 -78 251 -142 257 -142 6 0 55 25 109 56 374 216 529
307 536 314 5 4 -88 63 -205 130 -117 68 -262 152 -321 187 -60 34 -114 63
-120 63 -7 -1 -136 -72 -287 -160z"/>
<path d="M14945 2485 c-175 -102 -321 -187 -323 -189 -1 -2 48 -33 110 -69 62
-36 207 -119 323 -186 115 -67 214 -121 220 -121 11 0 632 354 648 369 8 8
-608 369 -642 378 -9 2 -160 -80 -336 -182z"/>
<path d="M16337 2486 c-175 -101 -320 -186 -323 -189 -3 -3 14 -16 38 -30 24
-14 131 -76 238 -138 107 -62 237 -136 288 -165 l92 -53 0 380 c0 208 -3 379
-7 379 -5 0 -151 -83 -326 -184z"/>
<path d="M480 2150 c-102 -60 -227 -132 -277 -162 -51 -29 -113 -65 -138 -81
l-45 -27 0 -375 c0 -206 4 -375 8 -375 4 0 84 44 178 98 93 54 238 138 322
186 l152 88 0 379 c0 208 -3 379 -7 378 -5 -1 -91 -50 -193 -109z"/>
<path d="M720 1882 l0 -379 188 -108 c103 -60 247 -144 321 -187 74 -43 138
-78 143 -78 5 0 7 170 6 377 l-3 377 -105 62 c-238 139 -487 282 -517 298
l-33 17 0 -379z"/>
<path d="M1733 2072 l-323 -187 0 -377 c0 -208 3 -378 7 -378 4 0 152 84 330
186 l323 187 0 378 c0 209 -3 379 -7 378 -5 0 -153 -84 -330 -187z"/>
<path d="M2112 1880 l3 -381 319 -185 c176 -101 324 -184 328 -184 5 0 7 170
6 377 l-3 377 -50 29 c-38 22 -554 319 -598 344 -4 2 -6 -167 -5 -377z"/>
<path d="M3279 2162 c-91 -53 -236 -137 -322 -187 l-157 -90 0 -377 c0 -208 2
-378 5 -378 3 0 152 84 330 187 l325 188 0 377 c0 208 -3 378 -7 377 -5 0 -83
-44 -174 -97z"/>
<path d="M3490 1886 c0 -287 3 -376 13 -384 15 -13 635 -372 642 -372 3 0 5
170 5 378 l0 378 -82 48 c-205 120 -567 326 -572 326 -3 0 -6 -168 -6 -374z"/>
<path d="M4720 2192 c-64 -37 -209 -121 -323 -187 l-207 -119 0 -378 c0 -208
2 -378 4 -378 2 0 139 77 303 172 164 94 310 179 325 187 l28 16 0 378 c0 207
-3 377 -7 377 -5 -1 -60 -31 -123 -68z"/>
<path d="M4880 1882 l0 -377 321 -185 c176 -102 324 -186 330 -188 5 -2 9 143
9 375 l0 379 -147 84 c-82 46 -164 94 -183 106 -77 47 -317 184 -323 184 -4 0
-7 -170 -7 -378z"/>
<path d="M6060 2164 c-91 -53 -236 -136 -322 -186 l-158 -91 -1 -361 c0 -199
-2 -369 -4 -378 -2 -10 0 -18 4 -18 9 0 629 356 648 372 10 8 13 99 13 384 0
206 -4 374 -8 374 -4 0 -81 -43 -172 -96z"/>
<path d="M6270 1882 l0 -377 198 -114 c108 -63 250 -145 314 -183 65 -38 124
-71 133 -74 13 -5 15 36 15 372 l0 379 -173 99 c-94 55 -240 139 -324 188 -84
48 -155 88 -158 88 -3 0 -5 -170 -5 -378z"/>
<path d="M7400 2136 c-118 -68 -264 -152 -325 -188 l-110 -63 -3 -378 c-2
-307 0 -378 11 -375 7 2 156 85 330 186 l317 184 0 379 c0 208 -1 379 -2 379
-2 0 -100 -56 -218 -124z"/>
<path d="M7660 1882 l0 -379 313 -181 c173 -100 321 -184 330 -188 16 -6 17
23 17 372 l0 379 -73 41 c-39 22 -148 85 -242 139 -299 173 -338 195 -341 195
-2 0 -4 -170 -4 -378z"/>
<path d="M8709 2091 c-157 -91 -302 -176 -322 -188 l-37 -22 0 -376 c0 -206 3
-375 8 -375 4 0 25 11 47 23 22 13 146 85 275 159 129 74 256 148 283 164 l47
29 0 377 c0 208 -3 378 -7 377 -5 -1 -137 -76 -294 -168z"/>
<path d="M9050 1881 l0 -379 43 -25 c133 -76 387 -223 486 -281 62 -36 118
-66 122 -66 5 0 9 168 9 374 0 287 -3 376 -12 384 -12 9 -308 180 -528 305
-58 33 -108 61 -112 64 -5 2 -8 -167 -8 -376z"/>
<path d="M10250 2180 c-74 -44 -219 -128 -322 -187 l-188 -108 0 -377 c0 -208
3 -378 7 -378 3 0 152 84 330 187 l323 187 0 378 c0 208 -3 378 -7 378 -5 -1
-69 -37 -143 -80z"/>
<path d="M10430 1887 c0 -289 3 -377 13 -385 19 -16 639 -372 648 -372 4 0 6
8 4 18 -2 9 -4 179 -4 377 l-1 361 -92 54 c-226 131 -541 312 -554 317 -12 4
-14 -50 -14 -370z"/>
<path d="M11695 2212 c-44 -26 -189 -110 -322 -187 l-243 -139 0 -378 c0 -208
2 -378 5 -378 3 0 74 40 158 88 84 49 222 128 307 177 85 49 163 95 173 103
16 14 17 45 17 389 0 205 -3 373 -7 373 -5 -1 -44 -22 -88 -48z"/>
<path d="M11820 1883 l0 -378 320 -185 c177 -102 325 -186 330 -188 6 -2 10
137 10 375 l0 379 -192 111 c-106 61 -252 145 -325 187 -72 42 -134 76 -137
76 -3 0 -6 -170 -6 -377z"/>
<path d="M12843 2073 l-323 -187 0 -378 c0 -208 2 -378 4 -378 6 0 629 360
644 372 9 8 12 97 12 384 0 206 -3 374 -7 374 -5 0 -153 -84 -330 -187z"/>
<path d="M13210 1882 l0 -377 198 -114 c108 -63 254 -147 323 -188 69 -40 129
-73 132 -73 4 0 7 170 7 378 l0 377 -138 79 c-75 44 -221 128 -324 188 -104
59 -190 108 -193 108 -3 0 -5 -170 -5 -378z"/>
<path d="M14445 2197 c-60 -35 -202 -117 -315 -182 -113 -64 -211 -122 -218
-128 -10 -8 -12 -93 -12 -383 1 -206 3 -374 6 -374 9 0 42 19 352 197 l302
175 0 379 c0 208 -1 379 -2 379 -2 0 -52 -29 -113 -63z"/>
<path d="M14600 1881 l0 -378 323 -187 c178 -102 327 -186 330 -186 4 0 7 168
7 374 0 287 -3 376 -12 384 -16 13 -636 372 -643 372 -3 0 -5 -170 -5 -379z"/>
<path d="M15680 2110 c-140 -82 -284 -166 -320 -188 l-65 -38 -3 -378 c-2
-337 -1 -378 13 -372 9 3 122 67 253 143 130 75 272 157 315 181 l77 44 0 379
c0 208 -3 379 -7 378 -5 0 -123 -68 -263 -149z"/>
<path d="M15990 1882 l0 -380 153 -88 c83 -48 224 -129 312 -180 88 -51 168
-96 178 -99 16 -7 17 13 15 371 l-3 379 -280 162 c-154 89 -301 174 -327 188
l-48 26 0 -379z"/>
<path d="M559 1392 c-74 -43 -218 -127 -321 -187 -104 -59 -188 -111 -188
-114 0 -3 24 -19 53 -35 28 -16 174 -100 324 -187 l272 -158 178 103 c98 56
244 140 325 187 81 46 148 87 148 90 0 6 -159 99 -606 356 -22 12 -43 23 -46
23 -2 0 -65 -35 -139 -78z"/>
<path d="M1752 1280 l-323 -188 138 -80 c76 -43 210 -121 298 -171 88 -51 174
-101 191 -112 l31 -19 139 81 c304 176 411 238 461 265 29 16 53 31 53 34 0 8
-644 380 -656 379 -5 -1 -154 -86 -332 -189z"/>
<path d="M3200 1314 c-146 -85 -292 -169 -324 -188 l-59 -33 69 -41 c306 -178
581 -335 589 -335 6 0 71 35 145 78 74 43 214 123 310 178 96 55 181 105 188
112 9 8 -16 27 -115 84 -71 41 -216 125 -324 187 -107 63 -200 114 -205 113
-5 0 -128 -70 -274 -155z"/>
<path d="M4655 1353 c-110 -64 -256 -149 -324 -189 l-123 -72 118 -69 c271
-159 530 -306 539 -306 9 0 250 137 564 320 l93 55 -28 17 c-16 10 -119 70
-229 133 -110 63 -244 141 -297 172 -54 31 -101 56 -105 56 -5 -1 -98 -53
-208 -117z"/>
<path d="M6199 1442 c-24 -15 -169 -99 -321 -186 -153 -87 -275 -162 -273
-167 3 -4 24 -18 48 -31 23 -14 166 -96 317 -183 151 -87 279 -158 285 -158
10 0 633 358 647 372 4 3 -59 44 -140 90 -81 47 -227 131 -325 188 -98 57
-181 103 -185 103 -5 0 -28 -12 -53 -28z"/>
<path d="M7325 1290 c-349 -203 -344 -199 -330 -206 6 -2 153 -87 328 -188
l318 -185 182 106 c100 58 246 142 324 186 79 45 142 86 140 90 -2 8 -635 377
-646 377 -3 0 -145 -81 -316 -180z"/>
<path d="M8859 1376 c-85 -50 -228 -133 -317 -185 -89 -51 -162 -96 -162 -100
0 -3 146 -90 325 -193 l324 -187 198 115 c109 63 255 147 325 187 70 39 127
75 128 78 0 4 -35 27 -77 51 -43 24 -189 108 -324 186 -136 78 -250 142 -255
141 -5 -1 -79 -42 -165 -93z"/>
<path d="M10365 1444 c-22 -14 -164 -96 -315 -183 -151 -87 -275 -162 -277
-167 -1 -5 59 -45 135 -88 75 -44 221 -128 324 -188 l187 -109 38 24 c21 14
162 96 313 182 151 87 281 163 288 169 10 10 -59 53 -312 199 -178 103 -328
187 -332 186 -5 0 -27 -12 -49 -25z"/>
<path d="M11473 1282 c-177 -103 -319 -190 -315 -194 14 -13 637 -371 647
-371 9 0 217 117 405 228 30 18 99 58 154 90 l98 57 -28 17 c-31 19 -281 164
-497 288 -70 40 -131 73 -135 72 -4 0 -152 -84 -329 -187z"/>
<path d="M13120 1431 c-36 -21 -121 -70 -190 -110 -69 -40 -185 -107 -258
-149 -102 -59 -129 -79 -120 -88 7 -6 60 -38 118 -71 58 -33 197 -113 310
-178 113 -65 210 -118 215 -118 6 0 80 41 165 90 555 321 496 284 473 296 -10
6 -157 91 -326 189 -170 98 -311 178 -315 177 -4 0 -36 -17 -72 -38z"/>
<path d="M14255 1285 c-176 -102 -321 -189 -322 -193 -1 -4 88 -59 199 -122
112 -63 258 -147 326 -187 l124 -72 246 143 c136 78 282 162 325 186 42 24 77
47 77 51 0 4 -111 72 -247 150 -371 214 -397 229 -403 229 -3 0 -149 -84 -325
-185z"/>
<path d="M15730 1334 c-129 -75 -274 -158 -322 -186 -49 -27 -88 -52 -88 -56
1 -4 49 -35 108 -68 59 -34 205 -118 324 -187 l218 -126 107 63 c118 68 433
249 500 287 24 13 43 27 43 31 0 3 -26 21 -57 39 -32 18 -174 99 -315 181
-142 82 -263 151 -270 153 -7 3 -119 -56 -248 -131z"/>
<path d="M20 688 c0 -205 4 -378 8 -384 4 -6 104 -66 222 -134 118 -68 232
-134 252 -147 30 -18 52 -23 108 -23 l70 0 0 343 0 342 -108 61 c-59 34 -205
119 -326 188 -120 69 -220 126 -222 126 -2 0 -4 -168 -4 -372z"/>
<path d="M1043 872 l-323 -187 0 -342 0 -343 68 0 68 0 262 151 262 152 0 378
c0 209 -3 379 -7 378 -5 0 -153 -85 -330 -187z"/>
<path d="M1412 680 l3 -382 259 -149 259 -149 69 0 68 0 0 343 -1 342 -321
185 c-177 102 -326 187 -330 188 -5 2 -7 -168 -6 -378z"/>
<path d="M2433 872 l-323 -186 0 -343 0 -343 68 0 c61 0 74 4 137 41 39 22
153 88 255 146 102 59 186 107 188 108 3 3 4 757 0 760 -2 1 -148 -81 -325
-183z"/>
<path d="M2800 681 l0 -379 103 -60 c56 -33 173 -101 259 -151 l157 -91 71 0
70 0 0 340 0 340 -42 26 c-81 48 -563 326 -590 340 l-28 15 0 -380z"/>
<path d="M3820 871 l-325 -189 -3 -341 -2 -341 72 0 73 0 215 125 c118 68 234
136 258 149 l42 26 0 380 c0 209 -1 380 -2 380 -2 -1 -149 -85 -328 -189z"/>
<path d="M4192 679 l3 -382 255 -148 255 -148 73 0 72 -1 -2 342 -3 342 -150
86 c-114 65 -401 231 -498 287 -4 2 -6 -168 -5 -378z"/>
<path d="M5305 926 c-126 -73 -273 -157 -325 -187 l-95 -55 -3 -342 -2 -342
70 0 71 0 242 140 c133 76 250 145 260 152 16 12 17 40 15 390 l-3 377 -230
-133z"/>
<path d="M5579 1053 c0 -4 0 -174 1 -378 0 -281 3 -372 13 -381 6 -6 109 -66
227 -134 118 -68 227 -131 242 -141 20 -15 44 -19 102 -19 l76 0 -2 341 -3
342 -190 110 c-104 60 -237 137 -295 170 -58 32 -120 68 -137 79 -18 11 -33
16 -34 11z"/>
<path d="M6850 1019 c-36 -22 -180 -106 -320 -187 l-255 -148 -3 -342 -2 -342
70 0 c66 0 74 3 162 54 51 29 167 97 258 149 l165 95 3 381 c1 210 -1 381 -5
380 -5 0 -37 -18 -73 -40z"/>
<path d="M6967 684 c2 -206 5 -379 8 -383 2 -5 82 -53 177 -108 359 -208 327
-193 401 -193 l67 0 0 343 0 342 -143 82 c-78 44 -224 129 -324 187 -101 58
-184 106 -185 106 -2 0 -2 -169 -1 -376z"/>
<path d="M8050 910 c-140 -82 -285 -166 -322 -187 l-67 -38 -1 -342 0 -343 68
0 69 0 261 151 262 151 0 379 c0 208 -3 379 -7 378 -5 -1 -123 -68 -263 -149z"/>
<path d="M8350 681 l0 -378 261 -152 262 -151 68 0 69 0 0 343 0 342 -108 61
c-59 34 -205 118 -326 187 -120 70 -220 127 -222 127 -2 0 -4 -170 -4 -379z"/>
<path d="M9615 1011 c-44 -26 -189 -110 -322 -187 l-243 -139 0 -342 0 -343
73 0 c40 0 77 4 83 9 9 9 181 109 384 224 58 33 106 60 108 62 3 3 4 757 0
760 -2 2 -39 -18 -83 -44z"/>
<path d="M9740 681 l0 -379 143 -83 c78 -45 194 -113 258 -151 115 -67 118
-68 188 -68 l71 0 0 343 -1 342 -132 75 c-73 41 -219 125 -326 187 -106 62
-195 113 -197 113 -2 0 -4 -171 -4 -379z"/>
<path d="M10760 871 l-325 -189 -3 -341 -2 -341 73 0 c65 0 79 4 130 34 31 19
144 85 252 146 108 62 198 117 201 124 6 16 10 756 4 756 -3 0 -151 -86 -330
-189z"/>
<path d="M11132 679 l3 -382 90 -52 c50 -29 165 -95 257 -148 l167 -97 70 0
71 0 -2 342 -3 342 -48 28 c-26 15 -170 98 -320 184 -150 86 -275 158 -280
161 -4 2 -6 -168 -5 -378z"/>
<path d="M12205 903 c-148 -86 -295 -170 -325 -188 l-55 -31 -3 -342 -2 -342
71 0 70 0 252 146 c139 80 255 149 260 153 4 4 6 177 5 384 l-3 376 -270 -156z"/>
<path d="M12522 679 l3 -383 255 -148 255 -147 73 -1 72 0 -2 341 -3 342 -285
164 c-157 91 -304 176 -328 189 l-42 25 2 -382z"/>
<path d="M13825 1036 c-22 -12 -148 -85 -280 -161 -132 -75 -261 -151 -287
-167 l-48 -30 0 -339 0 -339 69 0 70 0 253 146 c139 80 256 149 261 153 4 4 6
177 5 384 l-3 377 -40 -24z"/>
<path d="M13910 1053 c-1 -4 0 -174 0 -378 1 -276 4 -373 13 -381 7 -6 89 -55
182 -109 94 -54 204 -118 245 -142 68 -39 81 -43 142 -43 l68 0 0 343 0 343
-312 179 c-171 99 -317 184 -325 188 -7 4 -13 4 -13 0z"/>
<path d="M15120 984 c-69 -40 -214 -124 -322 -186 l-198 -113 0 -342 0 -343
69 0 69 0 184 106 c100 58 218 126 261 151 l77 45 0 379 c0 208 -3 379 -7 378
-5 0 -64 -34 -133 -75z"/>
<path d="M15290 682 l0 -379 262 -152 261 -151 69 0 68 0 0 343 0 342 -322
185 c-177 102 -325 187 -330 188 -4 2 -8 -167 -8 -376z"/>
<path d="M16475 964 c-88 -52 -233 -135 -322 -186 l-163 -93 0 -342 0 -343 69
0 c64 0 75 3 144 44 41 24 155 90 253 147 99 56 182 107 186 113 10 14 10 744
1 749 -5 3 -80 -37 -168 -89z"/>
<path d="M0 135 l0 -135 237 0 c130 0 234 2 232 4 -7 6 -461 266 -465 266 -2
0 -4 -61 -4 -135z"/>
<path d="M1158 137 l-226 -132 229 -3 c126 -1 334 -1 461 0 l233 3 -228 133
c-126 72 -231 132 -235 131 -4 0 -109 -60 -234 -132z"/>
<path d="M2548 137 l-227 -132 229 -3 c127 -1 334 -1 462 0 l232 3 -220 127
c-122 70 -227 130 -235 132 -8 3 -116 -55 -241 -127z"/>
<path d="M3960 150 c-113 -65 -216 -126 -230 -134 -23 -14 19 -15 440 -16 389
0 461 2 445 13 -32 22 -422 246 -437 252 -7 3 -105 -49 -218 -115z"/>
<path d="M5325 137 l-230 -132 233 -3 c127 -1 337 -1 464 0 218 3 231 4 203
19 -16 8 -121 68 -231 132 -111 64 -203 117 -205 117 -2 0 -107 -60 -234 -133z"/>
<path d="M6925 261 c-6 -5 -86 -53 -180 -107 -93 -54 -190 -109 -215 -123
l-45 -26 233 -3 c127 -1 335 -1 461 0 l230 3 -107 61 c-59 34 -162 94 -230
133 -67 39 -126 71 -130 71 -5 0 -12 -4 -17 -9z"/>
<path d="M8130 155 c-107 -63 -208 -122 -225 -132 -29 -18 -26 -18 203 -21
128 -1 335 -1 460 0 l227 3 -229 133 c-126 72 -232 132 -235 131 -3 0 -94 -52
-201 -114z"/>
<path d="M9560 178 c-85 -50 -189 -110 -230 -134 l-75 -44 463 0 c254 0 462 2
462 4 0 5 -429 253 -450 260 -8 3 -85 -36 -170 -86z"/>
<path d="M10920 162 c-102 -59 -205 -120 -230 -135 l-45 -27 464 0 c256 0 461
4 455 8 -11 11 -450 262 -455 261 -2 0 -87 -48 -189 -107z"/>
<path d="M12265 137 l-229 -132 232 -3 c128 -1 336 -1 462 0 l231 3 -230 133
c-126 72 -231 132 -233 132 -2 0 -106 -60 -233 -133z"/>
<path d="M13655 137 l-230 -132 232 -3 c128 -1 337 -1 464 0 l231 3 -63 36
c-35 19 -139 79 -231 132 -92 53 -169 97 -170 97 -2 0 -106 -60 -233 -133z"/>
<path d="M15048 141 c-119 -70 -220 -130 -224 -134 -4 -4 201 -7 456 -7 l464
0 -233 135 c-128 74 -235 135 -239 134 -4 0 -105 -58 -224 -128z"/>
<path d="M16560 213 c-52 -31 -156 -91 -230 -134 l-134 -79 237 0 237 0 0 135
c0 74 -3 135 -7 134 -5 0 -51 -26 -103 -56z"/>
</g>
</svg>
